<svg xmlns="http://www.w3.org/2000/svg" viewBox="0 11.449999809265137 76.80999755859375 33.11000061035156" data-asc="0.89111328125" width="76.80999755859375" height="33.11000061035156"><defs/><g fill="#bfbfbf"><g transform="translate(0, 0)"><path d="M27.66 35.40L28.47 35.57L25.63 44.56L0 44.56L0 43.65L1.25 43.65Q3.34 43.65 4.25 42.29Q4.76 41.50 4.76 38.67L4.76 17.31Q4.76 14.21 4.08 13.43Q3.13 12.35 1.25 12.35L0 12.35L0 11.45L14.99 11.45L14.99 12.35Q12.35 12.33 11.29 12.84Q10.23 13.35 9.84 14.14Q9.45 14.92 9.45 17.87L9.45 38.67Q9.45 40.70 9.84 41.46Q10.13 41.97 10.74 42.21Q11.35 42.46 14.55 42.46L16.97 42.46Q20.78 42.46 22.31 41.89Q23.85 41.33 25.12 39.90Q26.39 38.48 27.66 35.40ZM44.97 43.65L44.97 44.56L30.79 44.56L30.79 43.65L31.96 43.65Q34.01 43.65 34.94 42.46Q35.52 41.67 35.52 38.70L35.52 17.31Q35.52 14.79 35.21 13.99Q34.96 13.38 34.20 12.94Q33.13 12.35 31.96 12.35L30.79 12.35L30.79 11.45L44.97 11.45L44.97 12.35L43.77 12.35Q41.75 12.35 40.82 13.55Q40.21 14.33 40.21 17.31L40.21 38.70Q40.21 41.21 40.53 42.02Q40.77 42.63 41.55 43.07Q42.60 43.65 43.77 43.65L44.97 43.65ZM69.29 27.66Q72.73 28.39 74.44 30.00Q76.81 32.25 76.81 35.50Q76.81 37.96 75.24 40.22Q73.68 42.48 70.96 43.52Q68.24 44.56 62.65 44.56L47.02 44.56L47.02 43.65L48.27 43.65Q50.34 43.65 51.25 42.33Q51.81 41.48 51.81 38.70L51.81 17.31Q51.81 14.23 51.10 13.43Q50.15 12.35 48.27 12.35L47.02 12.35L47.02 11.45L61.33 11.45Q65.33 11.45 67.75 12.04Q71.41 12.92 73.34 15.15Q75.27 17.38 75.27 20.29Q75.27 22.78 73.75 24.74Q72.24 26.71 69.29 27.66M56.49 26.34Q57.40 26.51 58.56 26.60Q59.72 26.68 61.11 26.68Q64.67 26.68 66.47 25.92Q68.26 25.15 69.21 23.56Q70.17 21.97 70.17 20.09Q70.17 17.19 67.80 15.14Q65.43 13.09 60.89 13.09Q58.45 13.09 56.49 13.62L56.49 26.34M56.49 42.16Q59.33 42.82 62.08 42.82Q66.50 42.82 68.82 40.83Q71.14 38.84 71.14 35.91Q71.14 33.98 70.09 32.20Q69.04 30.42 66.67 29.39Q64.31 28.37 60.82 28.37Q59.30 28.37 58.23 28.42Q57.15 28.47 56.49 28.59L56.49 42.16Z"/></g></g></svg>